<?xml version="1.0" standalone="no"?>
<!DOCTYPE svg PUBLIC "-//W3C//DTD SVG 20010904//EN"
 "http://www.w3.org/TR/2001/REC-SVG-20010904/DTD/svg10.dtd">
<svg version="1.0" xmlns="http://www.w3.org/2000/svg"
 width="988.000000pt" height="236.000000pt" viewBox="0 0 988.000000 236.000000"
 preserveAspectRatio="xMidYMid meet">
<metadata>
Created by potrace 1.16, written by Peter Selinger 2001-2019
</metadata>
<g transform="translate(0.000000,236.000000) scale(0.100000,-0.100000)"
fill="#000000" stroke="none">
<path d="M8720 2343 c-32 -14 -148 -98 -194 -142 -130 -123 -324 -429 -416
-658 -32 -78 -43 -97 -57 -94 -58 13 -104 3 -165 -37 -46 -29 -78 -41 -118
-46 -30 -3 -160 -26 -289 -51 -334 -64 -453 -81 -498 -69 -36 8 -38 11 -41 53
-2 23 7 90 19 147 26 124 18 162 -25 119 -8 -8 -19 -15 -24 -15 -5 0 -16 -7
-23 -16 -7 -9 -23 -20 -36 -25 -15 -6 -36 -37 -65 -99 l-43 -90 -154 -76 c-84
-42 -165 -76 -179 -76 -60 -1 -65 54 -22 247 37 168 38 199 5 221 -30 20 -50
14 -126 -38 -57 -40 -103 -85 -252 -251 -43 -48 -83 -87 -88 -87 -14 0 -11 70
6 126 8 27 15 69 17 93 4 61 -15 71 -70 35 -23 -15 -42 -31 -42 -36 0 -4 -8
-8 -19 -8 -18 0 -35 -26 -60 -93 -9 -22 -41 -42 -187 -112 -98 -47 -179 -83
-182 -81 -2 3 5 52 17 110 11 58 21 115 21 128 0 30 -26 68 -47 68 -9 0 -64
-31 -122 -69 -118 -77 -177 -108 -187 -98 -12 12 49 79 85 93 62 24 123 58
128 72 3 6 13 12 23 12 10 0 21 7 24 16 26 68 -123 32 -262 -63 -145 -99 -192
-157 -192 -235 0 -69 25 -92 95 -86 41 3 73 16 134 51 44 26 83 47 87 47 21 0
-59 -218 -94 -256 -15 -16 -77 -73 -138 -126 -305 -267 -538 -624 -508 -778
l7 -30 129 0 c120 0 133 2 172 25 139 81 299 328 476 733 59 134 67 147 120
191 62 52 273 204 330 238 l35 21 0 -63 c0 -57 3 -67 29 -94 34 -36 78 -41
129 -15 32 17 180 116 227 153 l25 19 -3 -56 c-4 -75 24 -158 61 -186 39 -29
153 -29 217 0 48 22 200 118 263 167 41 32 57 27 57 -18 0 -29 22 -57 69 -90
40 -27 44 -28 139 -22 53 3 149 17 212 31 125 27 398 104 482 136 28 11 54 18
56 16 2 -2 -7 -24 -19 -48 -32 -62 -33 -159 -1 -190 45 -46 137 -20 287 81
l60 41 29 -58 c53 -108 110 -145 216 -144 122 1 260 58 451 187 61 41 113 75
115 75 2 0 4 -15 4 -34 0 -44 52 -114 101 -139 172 -84 456 -13 765 193 132
88 184 135 184 168 0 21 -3 23 -27 17 -15 -3 -99 -38 -187 -77 -317 -139 -440
-168 -558 -134 -58 16 -71 27 -82 62 -9 30 17 54 58 54 81 0 244 81 296 147
50 63 5 133 -85 133 -81 0 -228 -80 -348 -189 -94 -84 -364 -226 -492 -258
-60 -15 -72 -15 -108 -2 -22 8 -49 26 -59 40 -27 36 -35 133 -15 179 8 19 70
105 137 190 260 332 430 625 430 745 0 18 -8 42 -17 54 -18 22 -76 35 -103 24z
m-3805 -1810 c-59 -112 -192 -320 -219 -342 -14 -11 -16 -11 -16 3 0 26 54
139 98 202 52 77 181 244 188 244 3 0 -20 -48 -51 -107z"/>
<path d="M1624 1870 c-187 -27 -371 -165 -462 -346 -44 -87 -62 -168 -62 -276
0 -177 56 -314 180 -439 247 -248 636 -252 881 -9 129 127 189 271 189 449 0
112 -21 195 -73 295 -122 235 -383 366 -653 326z m161 -241 c33 -6 80 -21 105
-34 264 -134 264 -562 -1 -694 -116 -58 -259 -48 -364 24 -200 138 -220 449
-39 614 58 53 104 78 167 90 60 12 66 12 132 0z"/>
<path d="M7028 1868 c-25 -24 -77 -58 -87 -58 -15 0 -37 -48 -51 -113 -11 -47
-11 -62 0 -82 15 -28 41 -32 60 -10 7 8 16 15 21 15 14 0 83 49 102 73 30 37
57 95 57 121 0 49 -68 85 -102 54z"/>
<path d="M14 1829 c3 -17 6 -69 6 -115 l0 -84 170 0 170 0 0 -500 0 -500 120
0 121 0 -3 501 -3 502 173 -6 172 -5 0 119 0 119 -466 0 -466 0 6 -31z"/>
<path d="M2508 1603 c1 -142 3 -348 5 -458 l2 -200 36 -75 c48 -99 120 -171
219 -219 75 -36 76 -36 210 -36 130 0 137 1 200 31 119 57 203 153 241 275 17
56 19 97 19 500 l0 439 -115 0 -114 0 -3 -432 -3 -433 -28 -48 c-39 -67 -94
-100 -171 -105 -92 -6 -143 11 -197 67 -32 33 -49 62 -57 94 -8 31 -12 177
-12 451 l0 406 -117 0 -118 0 3 -257z"/>
<path d="M3650 1245 l0 -615 121 0 121 0 -4 155 -3 155 186 0 186 0 55 -152
54 -153 122 -3 c70 -1 122 1 122 7 0 5 -30 92 -66 195 l-66 185 37 46 c61 74
87 159 92 300 9 231 -56 378 -199 447 -88 43 -139 48 -458 48 l-300 0 0 -615z
m643 362 c55 -24 80 -85 81 -197 1 -97 -17 -169 -48 -199 -32 -30 -108 -41
-282 -41 l-154 0 0 208 c0 114 -3 218 -7 230 l-6 24 189 -4 c149 -3 197 -7
227 -21z"/>
</g>
</svg>
